# xmcd
#
# Track frame offsets:
#	150
#	14618
#	28482
#	42793
#	57401
#	70972
#	84029
#	97842
#	110325
#	125358
#	139590
#	152707
#	164558
#	178091
#	191091
#	204451
#	218985
#	232688
#	246494
#	260354
#	274510
#	288382
#	301709
#	314002
#	328290
#	342152
#
# Disc length: 4732 seconds
#
# Revision: 3
# Processed by: cddbd v1.5.2PL0 Copyright (c) Steve Scherf et al.
# Submitted via: EasyCDDAExtractor 11.1.0.1
#
DISCID=7c127a1a
DTITLE=Big Bill Broonzy - All The Classic Sides 1928-1937 - Disc 4
DYEAR=2003
DGENRE=Blues
TTITLE0=Rising Sun Shine On (1935)
TTITLE1=Mountain Blues (1935)
TTITLE2=Bad Luck Blues (1935)
TTITLE3=I Can't Make You Satisfied (1935)
TTITLE4=I'm Just A Bum (1935)
TTITLE5=Keep Your Hands Off Her (1935)
TTITLE6=The Sun Gonna Shine In My Door Someday (1935)
TTITLE7=Good Liquor Gonna Carry Me Down (1935)
TTITLE8=Down The Line Blues (1935)
TTITLE9=Bricks In My Pillow (1935)
TTITLE10=Tell Me What You Been Doing (1935)
TTITLE11=Ash Hauler (1935)
TTITLE12=Evil Women Blues (1935)
TTITLE13=These Ants Keep Biting Me (1935)
TTITLE14=Big Bill Blues (These Blues Are Doggin' Me) (1935)
TTITLE15=You Know I Need Lovin' (1935)
TTITLE16=Match Box Blues (1935)
TTITLE17=Low Down Woman Blues (1935)
TTITLE18=Keep Your Mind On It (1936)
TTITLE19=Bull Cow Blues No. 3 (1936)
TTITLE20=Married Life's A Pain (1936)
TTITLE21=Black Mare Blues (1936)
TTITLE22=Pneumonia Blues (I Keep On Aching) (1936)
TTITLE23=Big Bill's Milk Cow No. 2 (1936)
TTITLE24=WPA Blues (1936)
TTITLE25=I'm A Southern Man (1936)
EXTD=
EXTT0=
EXTT1=
EXTT2=
EXTT3=
EXTT4=
EXTT5=
EXTT6=
EXTT7=
EXTT8=
EXTT9=
EXTT10=
EXTT11=
EXTT12=
EXTT13=
EXTT14=
EXTT15=
EXTT16=
EXTT17=
EXTT18=
EXTT19=
EXTT20=
EXTT21=
EXTT22=
EXTT23=
EXTT24=
EXTT25=
PLAYORDER=
